<?xml version="1.0" encoding="utf-8"?>
<!-- Generator: Adobe Illustrator 21.0.0, SVG Export Plug-In . SVG Version: 6.00 Build 0)  -->
<svg version="1.1" id="Layer_1" xmlns="http://www.w3.org/2000/svg" xmlns:xlink="http://www.w3.org/1999/xlink" x="0px" y="0px"
	 viewBox="0 0 82 58" style="enable-background:new 0 0 82 58;" xml:space="preserve">
<style type="text/css">
	.st0{fill:#FFFFFF;}
	.st1{fill:#EE3524;}
	.st2{fill:#F78E1E;}
	.st3{fill:#FFF200;}
	.st4{fill:#7AC143;}
	.st5{fill:#00AEEF;}
	.st6{fill:#492F92;}
</style>
<g>
	<g>
		<g>
			<path class="st0" d="M75.2,30.6H75"/>
		</g>
		<g>
			<path class="st0" d="M33,31.9h-3.8v14.3H33c3.4,0,4.6-1.3,4.6-5.1V37C37.7,33.3,36.4,31.9,33,31.9z M35.2,41.4
				c0,1.9-0.4,2.4-2,2.4h-1.5v-9.4h1.5c1.5,0,2,0.4,2,2.4V41.4z"/>
			<path class="st0" d="M48.3,45.5L45,40c1.4-0.5,2.6-1.5,2.6-3.9c0-2.8-1.6-4.2-4.9-4.2h-3.6v14.3h2.5v-5.8h0.8l3.2,5.5l0.1,0.2h3
				L48.3,45.5z M42.8,38h-1.1v-3.6h1.1c1.8,0,2.4,0.4,2.4,1.8C45.2,37.8,44.4,38,42.8,38z"/>
			<path class="st0" d="M49.2,36.6v5c0,3.1,1.6,4.7,4.7,4.7h2.5v-2.5h-2.9c-0.8,0-1.8-0.3-1.8-2.2v-1.4h4.7v-2.5h-4.7v-1.1
				c0-1.6,0.5-2.2,2.1-2.2h2.6v-2.5h-2.7C50.9,31.9,49.2,33.6,49.2,36.6z"/>
			<path class="st0" d="M61.8,31.7c-2.6,0-4.2,1.8-4.2,4.7v9.8h2.5v-6.1h3.5v6.1H66v-9.8C66,33.4,64.5,31.7,61.8,31.7z M63.6,37.7
				h-3.5v-1.2c0-2,0.8-2.3,1.8-2.3s1.8,0.4,1.8,2.3L63.6,37.7L63.6,37.7z"/>
			<path class="st0" d="M77.8,31.7c-1.4,0-2.3,0.5-3,1.3c-0.7-0.8-1.5-1.3-3-1.3c-1.9,0-4.2,0.8-4.2,4.8v9.7h2.5v-9.7
				c0-1.9,0.7-2.3,1.7-2.3c1.1,0,1.8,0.4,1.8,2.3v9.8H76v-9.7c0-1.7,0.5-2.3,1.7-2.3c1.1,0,1.8,0.4,1.8,2.3v9.7H82v-9.7
				C82,33.4,80.6,31.7,77.8,31.7z"/>
		</g>
		<g>
			<g>
				<polygon class="st0" points="32.2,53.9 32.2,50.2 31.2,50.2 31.2,49.5 33.9,49.5 33.9,50.2 32.9,50.2 32.9,53.9 				"/>
				<path class="st0" d="M33.8,49.6v0.5h-1v3.8h-0.5v-3.8h-1v-0.5H33.8 M34,49.4h-0.2h-2.5h-0.2v0.2v0.5v0.2h0.2h0.8v3.6V54h0.2h0.5
					H33v-0.2v-3.6h0.8H34V50V49.4L34,49.4L34,49.4z"/>
			</g>
			<g>
				<path class="st0" d="M47.4,54c-0.6,0-1.3-0.3-1.3-1.5v-1.6c0-1.2,0.7-1.5,1.3-1.5s1.3,0.3,1.3,1.5v1.6
					C48.6,53.7,47.9,54,47.4,54L47.4,54z M47.4,50.1c-0.4,0-0.6,0.2-0.6,0.8v1.6c0,0.6,0.2,0.8,0.6,0.8c0.5,0,0.6-0.2,0.6-0.8v-1.6
					C48,50.3,47.8,50.1,47.4,50.1L47.4,50.1z"/>
				<path class="st0" d="M47.4,49.5c0.8,0,1.2,0.5,1.2,1.4v1.6c0,0.9-0.4,1.4-1.2,1.4s-1.2-0.5-1.2-1.4v-1.6
					C46.2,50,46.6,49.5,47.4,49.5 M47.4,53.4c0.6,0,0.7-0.3,0.7-0.9v-1.6c0-0.6-0.2-0.9-0.7-0.9c-0.6,0-0.7,0.3-0.7,0.9v1.6
					C46.6,53.1,46.8,53.4,47.4,53.4 M47.4,49.3c-0.9,0-1.4,0.6-1.4,1.6v1.6c0,1,0.5,1.6,1.4,1.6s1.4-0.6,1.4-1.6v-1.6
					C48.7,49.9,48.2,49.3,47.4,49.3L47.4,49.3z M47.4,53.2c-0.3,0-0.5-0.1-0.5-0.7v-1.6c0-0.6,0.2-0.7,0.5-0.7s0.5,0.1,0.5,0.7v1.6
					C47.9,53.1,47.7,53.2,47.4,53.2L47.4,53.2z"/>
			</g>
			<g>
				<polygon class="st0" points="63.8,53.9 63.1,50.5 62.5,53.9 61.7,53.9 60.8,49.5 61.5,49.5 62.1,52.9 62.7,49.5 63.6,49.5 
					64.3,52.9 64.9,49.5 65.6,49.5 64.7,53.9 				"/>
				<path class="st0" d="M65.5,49.6l-0.9,4.2h-0.7l-0.7-3.6h-0.1l-0.6,3.6h-0.7l-0.9-4.2h0.5l0.7,3.6h0.1l0.7-3.6h0.7l0.7,3.6h0.1
					l0.7-3.6H65.5 M65.7,49.4h-0.2H65h-0.2v0.2l-0.5,2.9l-0.6-2.9v-0.2h-0.2h-0.7h-0.2v0.2l-0.5,2.8l-0.5-2.8v-0.2h-0.2h-0.5h-0.2
					v0.2l0.9,4.2V54h0.2h0.7h0.2v-0.2l0.5-2.8l0.6,2.8V54H64h0.7h0.2v-0.2l0.9-4.2L65.7,49.4L65.7,49.4z"/>
			</g>
			<g>
				<path class="st0" d="M79.6,53.9v-3c0-0.5-0.1-0.8-0.6-0.8s-0.6,0.2-0.6,0.8v3h-0.7v-3c0-1,0.4-1.5,1.3-1.5s1.3,0.5,1.3,1.5v3
					H79.6z"/>
				<path class="st0" d="M79,49.5c0.9,0,1.2,0.5,1.2,1.4v2.9h-0.5v-2.9c0-0.5-0.1-0.9-0.7-0.9s-0.7,0.4-0.7,0.9v2.9h-0.5v-2.9
					C77.8,50,78.1,49.5,79,49.5 M79,49.3c-0.9,0-1.4,0.5-1.4,1.6v2.9V54h0.2h0.5h0.2v-0.2v-2.9c0-0.5,0.1-0.7,0.5-0.7
					s0.5,0.2,0.5,0.7v2.9V54h0.2h0.5h0.2v-0.2v-2.9C80.4,50.2,80.2,49.3,79,49.3L79,49.3z"/>
			</g>
		</g>
	</g>
	<g>
		<path class="st1" d="M0,43.3c0-6.9,5.6-12.5,12.5-12.5l0,0c6.9,0,12.5,5.6,12.5,12.5l0,0c0,6.9-5.6,12.5-12.5,12.5l0,0
			C5.6,55.8,0,50.2,0,43.3L0,43.3z M4.9,35.8c-1.9,1.9-3.1,4.6-3.1,7.5l0,0c0,3,1.2,5.6,3.1,7.5l0,0c1.9,1.9,4.6,3.1,7.5,3.1l0,0
			c3,0,5.6-1.2,7.5-3.1l0,0c1.9-1.9,3.1-4.6,3.1-7.5l0,0c0-3-1.2-5.6-3.1-7.5l0,0c-1.9-1.9-4.6-3.1-7.5-3.1l0,0
			C9.5,32.7,6.9,33.9,4.9,35.8L4.9,35.8z"/>
		<path class="st2" d="M1.8,43.3c0-5.9,4.8-10.7,10.7-10.7l0,0c5.9,0,10.7,4.8,10.7,10.7l0,0c0,5.9-4.8,10.7-10.7,10.7l0,0
			C6.6,54,1.8,49.2,1.8,43.3L1.8,43.3z M6.2,37.1c-1.6,1.6-2.6,3.8-2.6,6.3l0,0c0,2.5,1,4.7,2.6,6.3l0,0c1.6,1.6,3.8,2.6,6.3,2.6
			l0,0c2.5,0,4.7-1,6.3-2.6l0,0c1.6-1.6,2.6-3.8,2.6-6.3l0,0c0-2.5-1-4.7-2.6-6.3l0,0c-1.6-1.6-3.8-2.6-6.3-2.6l0,0
			C10,34.5,7.8,35.5,6.2,37.1L6.2,37.1z"/>
		<path class="st3" d="M3.6,43.3c0-4.9,4-8.9,8.9-8.9l0,0c4.9,0,8.9,4,8.9,8.9l0,0c0,4.9-4,8.9-8.9,8.9l0,0
			C7.6,52.2,3.6,48.2,3.6,43.3L3.6,43.3z M7.5,38.4c-1.3,1.3-2.1,3-2.1,5l0,0c0,2,0.8,3.7,2.1,5l0,0c1.3,1.3,3,2.1,5,2.1l0,0
			c2,0,3.7-0.8,5-2.1l0,0c1.3-1.3,2.1-3,2.1-5l0,0c0-2-0.8-3.7-2.1-5l0,0c-1.3-1.3-3-2.1-5-2.1l0,0C10.5,36.3,8.8,37.1,7.5,38.4
			L7.5,38.4z"/>
		<path class="st4" d="M5.4,43.3c0-3.9,3.2-7.1,7.1-7.1l0,0c3.9,0,7.1,3.2,7.1,7.1l0,0c0,3.9-3.2,7.1-7.1,7.1l0,0
			C8.6,50.4,5.4,47.2,5.4,43.3L5.4,43.3z M8.8,39.6c-1,1-1.5,2.3-1.5,3.7l0,0c0,1.5,0.6,2.8,1.5,3.7l0,0c1,1,2.3,1.5,3.7,1.5l0,0
			c2.9,0,5.3-2.4,5.3-5.3l0,0c0-2.9-2.4-5.3-5.3-5.3l0,0C11,38.1,9.7,38.7,8.8,39.6L8.8,39.6z"/>
		<path class="st5" d="M7.2,43.3c0-2.9,2.4-5.3,5.3-5.3l0,0c2.9,0,5.3,2.4,5.3,5.3l0,0c0,2.9-2.4,5.3-5.3,5.3l0,0
			C9.6,48.6,7.2,46.3,7.2,43.3L7.2,43.3z M9,43.3c0,1.9,1.5,3.5,3.5,3.5l0,0c1.9,0,3.5-1.5,3.5-3.5l0,0c0-1.9-1.5-3.5-3.5-3.5l0,0
			C10.6,39.9,9,41.4,9,43.3L9,43.3z"/>
		<path class="st6" d="M9,43.3c0-1.9,1.5-3.5,3.5-3.5l0,0c1.9,0,3.5,1.5,3.5,3.5l0,0c0,1.9-1.5,3.5-3.5,3.5l0,0
			C10.6,46.8,9,45.3,9,43.3L9,43.3z M10.8,43.3c0,0.9,0.7,1.7,1.7,1.7l0,0c0.9,0,1.7-0.7,1.7-1.7l0,0c0-0.9-0.7-1.7-1.7-1.7l0,0
			C11.6,41.7,10.8,42.4,10.8,43.3L10.8,43.3z"/>
		<path class="st1" d="M23.1,43.3v-30c0-0.5,0.4-0.9,0.9-0.9l0,0c0.5,0,0.9,0.4,0.9,0.9l0,0v30c0,0.5-0.4,0.9-0.9,0.9l0,0
			C23.6,44.2,23.1,43.8,23.1,43.3L23.1,43.3z"/>
		<path class="st2" d="M21.3,43.3V9.9c0-0.5,0.4-0.9,0.9-0.9l0,0c0.5,0,0.9,0.4,0.9,0.9l0,0v33.4c0,0.5-0.4,0.9-0.9,0.9l0,0
			C21.7,44.2,21.3,43.8,21.3,43.3L21.3,43.3z"/>
		<path class="st3" d="M19.5,43.3V3.1c0-0.5,0.4-0.9,0.9-0.9l0,0c0.5,0,0.9,0.4,0.9,0.9l0,0v40.3c0,0.5-0.4,0.9-0.9,0.9l0,0
			C19.9,44.2,19.5,43.8,19.5,43.3L19.5,43.3z"/>
		<path class="st4" d="M17.7,43.3v-35c0-0.5,0.4-0.9,0.9-0.9l0,0c0.5,0,0.9,0.4,0.9,0.9l0,0v35c0,0.5-0.4,0.9-0.9,0.9l0,0
			C18.1,44.2,17.7,43.8,17.7,43.3L17.7,43.3z"/>
		<path class="st5" d="M15.9,43.3V5.6c0-0.5,0.4-0.9,0.9-0.9l0,0c0.5,0,0.9,0.4,0.9,0.9l0,0v37.8c0,0.5-0.4,0.9-0.9,0.9l0,0
			C16.3,44.2,15.9,43.8,15.9,43.3L15.9,43.3z"/>
		<path class="st6" d="M14.1,43.3V11c0-0.5,0.4-0.9,0.9-0.9l0,0c0.5,0,0.9,0.4,0.9,0.9l0,0v32.4c0,0.5-0.4,0.9-0.9,0.9l0,0
			C14.5,44.2,14.1,43.8,14.1,43.3L14.1,43.3z"/>
	</g>
</g>
</svg>
